<svg width="76" height="75" viewBox="0 0 76 75" fill="none" xmlns="http://www.w3.org/2000/svg">
<path d="M31.0813 37.4469C31.0813 33.7516 34.1791 30.7551 38.0014 30.7551C41.8237 30.7551 44.9231 33.7516 44.9231 37.4469C44.9231 41.1423 41.8237 44.1388 38.0014 44.1388C34.1791 44.1388 31.0813 41.1423 31.0813 37.4469ZM27.3396 37.4469C27.3396 43.1399 32.1129 47.7546 38.0014 47.7546C43.8899 47.7546 48.6632 43.1399 48.6632 37.4469C48.6632 31.754 43.8899 27.1392 38.0014 27.1392C32.1129 27.1392 27.3396 31.754 27.3396 37.4469ZM46.5936 26.7305C46.5934 27.207 46.7394 27.6727 47.013 28.069C47.2866 28.4652 47.6756 28.7741 48.1308 28.9566C48.586 29.1391 49.087 29.187 49.5704 29.0943C50.0537 29.0015 50.4978 28.7722 50.8464 28.4355C51.195 28.0987 51.4325 27.6696 51.5288 27.2024C51.6251 26.7351 51.576 26.2508 51.3876 25.8105C51.1992 25.3703 50.88 24.994 50.4703 24.7291C50.0607 24.4643 49.579 24.3228 49.0862 24.3226H49.0852C48.4247 24.3229 47.7913 24.5767 47.3241 25.0282C46.8569 25.4796 46.5942 26.0919 46.5936 26.7305V26.7305ZM29.6129 53.7866C27.5886 53.6975 26.4883 53.3715 25.7571 53.096C24.7877 52.7312 24.096 52.2966 23.3688 51.5945C22.6416 50.8924 22.1914 50.2244 21.8157 49.2871C21.5306 48.5805 21.1934 47.5165 21.1014 45.5593C21.0008 43.4434 20.9807 42.8078 20.9807 37.4471C20.9807 32.0864 21.0024 31.4525 21.1014 29.3348C21.1936 27.3777 21.5333 26.3157 21.8157 25.607C22.1931 24.6698 22.6426 24.0011 23.3688 23.2981C24.095 22.595 24.786 22.1598 25.7571 21.7965C26.488 21.521 27.5886 21.195 29.6129 21.106C31.8016 21.0087 32.459 20.9892 38.0014 20.9892C43.5437 20.9892 44.2018 21.0103 46.3923 21.106C48.4167 21.1951 49.5151 21.5235 50.2482 21.7965C51.2176 22.1598 51.9092 22.5959 52.6365 23.2981C53.3637 24.0002 53.8122 24.6698 54.1896 25.607C54.4746 26.3136 54.8118 27.3777 54.9038 29.3348C55.0045 31.4525 55.0246 32.0864 55.0246 37.4471C55.0246 42.8078 55.0045 43.4416 54.9038 45.5593C54.8116 47.5165 54.4728 48.5802 54.1896 49.2871C53.8122 50.2244 53.3627 50.8931 52.6365 51.5945C51.9102 52.296 51.2176 52.7312 50.2482 53.096C49.5173 53.3716 48.4167 53.6976 46.3923 53.7866C44.2037 53.8839 43.5462 53.9033 38.0014 53.9033C32.4565 53.9033 31.8009 53.8839 29.6129 53.7866V53.7866ZM29.441 17.4946C27.2306 17.5919 25.7202 17.9308 24.4011 18.427C23.0351 18.9395 21.8786 19.6269 20.723 20.7424C19.5674 21.8579 18.8581 22.9777 18.3281 24.2984C17.8148 25.5744 17.4643 27.0339 17.3637 29.1709C17.2613 31.3112 17.2379 31.9955 17.2379 37.4469C17.2379 42.8983 17.2613 43.5826 17.3637 45.723C17.4643 47.8601 17.8148 49.3194 18.3281 50.5955C18.8581 51.9154 19.5676 53.0365 20.723 54.1514C21.8785 55.2664 23.0351 55.953 24.4011 56.4668C25.7227 56.9631 27.2306 57.3019 29.441 57.3992C31.6561 57.4966 32.3627 57.5208 38.0014 57.5208C43.6401 57.5208 44.3479 57.4982 46.5617 57.3992C48.7723 57.3019 50.2817 56.9631 51.6016 56.4668C52.9669 55.953 54.1241 55.2669 55.2797 54.1514C56.4353 53.036 57.1431 51.9154 57.6747 50.5955C58.1879 49.3194 58.5401 47.86 58.6391 45.723C58.7398 43.581 58.7632 42.8983 58.7632 37.4469C58.7632 31.9955 58.7398 31.3112 58.6391 29.1709C58.5384 27.0337 58.1879 25.5736 57.6747 24.2984C57.1431 22.9785 56.4335 21.8596 55.2797 20.7424C54.1259 19.6252 52.9669 18.9395 51.6033 18.427C50.2817 17.9308 48.7721 17.5903 46.5634 17.4946C44.3495 17.3973 43.6417 17.373 38.003 17.373C32.3643 17.373 31.6561 17.3957 29.441 17.4946Z" fill="url(#paint0_radial_3_170)"/>
<path d="M31.0813 37.4469C31.0813 33.7516 34.1791 30.7551 38.0014 30.7551C41.8237 30.7551 44.9231 33.7516 44.9231 37.4469C44.9231 41.1423 41.8237 44.1388 38.0014 44.1388C34.1791 44.1388 31.0813 41.1423 31.0813 37.4469ZM27.3396 37.4469C27.3396 43.1399 32.1129 47.7546 38.0014 47.7546C43.8899 47.7546 48.6632 43.1399 48.6632 37.4469C48.6632 31.754 43.8899 27.1392 38.0014 27.1392C32.1129 27.1392 27.3396 31.754 27.3396 37.4469ZM46.5936 26.7305C46.5934 27.207 46.7394 27.6727 47.013 28.069C47.2866 28.4652 47.6756 28.7741 48.1308 28.9566C48.586 29.1391 49.087 29.187 49.5704 29.0943C50.0537 29.0015 50.4978 28.7722 50.8464 28.4355C51.195 28.0987 51.4325 27.6696 51.5288 27.2024C51.6251 26.7351 51.576 26.2508 51.3876 25.8105C51.1992 25.3703 50.88 24.994 50.4703 24.7291C50.0607 24.4643 49.579 24.3228 49.0862 24.3226H49.0852C48.4247 24.3229 47.7913 24.5767 47.3241 25.0282C46.8569 25.4796 46.5942 26.0919 46.5936 26.7305V26.7305ZM29.6129 53.7866C27.5886 53.6975 26.4883 53.3715 25.7571 53.096C24.7877 52.7312 24.096 52.2966 23.3688 51.5945C22.6416 50.8924 22.1914 50.2244 21.8157 49.2871C21.5306 48.5805 21.1934 47.5165 21.1014 45.5593C21.0008 43.4434 20.9807 42.8078 20.9807 37.4471C20.9807 32.0864 21.0024 31.4525 21.1014 29.3348C21.1936 27.3777 21.5333 26.3157 21.8157 25.607C22.1931 24.6698 22.6426 24.0011 23.3688 23.2981C24.095 22.595 24.786 22.1598 25.7571 21.7965C26.488 21.521 27.5886 21.195 29.6129 21.106C31.8016 21.0087 32.459 20.9892 38.0014 20.9892C43.5437 20.9892 44.2018 21.0103 46.3923 21.106C48.4167 21.1951 49.5151 21.5235 50.2482 21.7965C51.2176 22.1598 51.9092 22.5959 52.6365 23.2981C53.3637 24.0002 53.8122 24.6698 54.1896 25.607C54.4746 26.3136 54.8118 27.3777 54.9038 29.3348C55.0045 31.4525 55.0246 32.0864 55.0246 37.4471C55.0246 42.8078 55.0045 43.4416 54.9038 45.5593C54.8116 47.5165 54.4728 48.5802 54.1896 49.2871C53.8122 50.2244 53.3627 50.8931 52.6365 51.5945C51.9102 52.296 51.2176 52.7312 50.2482 53.096C49.5173 53.3716 48.4167 53.6976 46.3923 53.7866C44.2037 53.8839 43.5462 53.9033 38.0014 53.9033C32.4565 53.9033 31.8009 53.8839 29.6129 53.7866V53.7866ZM29.441 17.4946C27.2306 17.5919 25.7202 17.9308 24.4011 18.427C23.0351 18.9395 21.8786 19.6269 20.723 20.7424C19.5674 21.8579 18.8581 22.9777 18.3281 24.2984C17.8148 25.5744 17.4643 27.0339 17.3637 29.1709C17.2613 31.3112 17.2379 31.9955 17.2379 37.4469C17.2379 42.8983 17.2613 43.5826 17.3637 45.723C17.4643 47.8601 17.8148 49.3194 18.3281 50.5955C18.8581 51.9154 19.5676 53.0365 20.723 54.1514C21.8785 55.2664 23.0351 55.953 24.4011 56.4668C25.7227 56.9631 27.2306 57.3019 29.441 57.3992C31.6561 57.4966 32.3627 57.5208 38.0014 57.5208C43.6401 57.5208 44.3479 57.4982 46.5617 57.3992C48.7723 57.3019 50.2817 56.9631 51.6016 56.4668C52.9669 55.953 54.1241 55.2669 55.2797 54.1514C56.4353 53.036 57.1431 51.9154 57.6747 50.5955C58.1879 49.3194 58.5401 47.86 58.6391 45.723C58.7398 43.581 58.7632 42.8983 58.7632 37.4469C58.7632 31.9955 58.7398 31.3112 58.6391 29.1709C58.5384 27.0337 58.1879 25.5736 57.6747 24.2984C57.1431 22.9785 56.4335 21.8596 55.2797 20.7424C54.1259 19.6252 52.9669 18.9395 51.6033 18.427C50.2817 17.9308 48.7721 17.5903 46.5634 17.4946C44.3495 17.3973 43.6417 17.373 38.003 17.373C32.3643 17.373 31.6561 17.3957 29.441 17.4946Z" fill="url(#paint1_radial_3_170)"/>
<defs>
<radialGradient id="paint0_radial_3_170" cx="0" cy="0" r="1" gradientUnits="userSpaceOnUse" gradientTransform="translate(22.755 57.7105) scale(54.2099 52.4095)">
<stop offset="0.09" stop-color="#FA8F21"/>
<stop offset="0.78" stop-color="#D82D7E"/>
</radialGradient>
<radialGradient id="paint1_radial_3_170" cx="0" cy="0" r="1" gradientUnits="userSpaceOnUse" gradientTransform="translate(42.4222 59.5091) scale(42.7249 41.3059)">
<stop offset="0.64" stop-color="#8C3AAA" stop-opacity="0"/>
<stop offset="1" stop-color="#8C3AAA"/>
</radialGradient>
</defs>
</svg>
